<svg width="20" height="14" viewBox="0 0 20 14" fill="none" xmlns="http://www.w3.org/2000/svg">
<path d="M15.105 8.82352C13.7149 8.82352 12.584 9.95442 12.584 11.3445C12.584 12.7347 13.7149 13.8656 15.105 13.8656C16.4954 13.8656 17.626 12.7347 17.626 11.3445C17.626 9.95442 16.4951 8.82352 15.105 8.82352ZM15.105 12.6051C14.4098 12.6051 13.8445 12.0397 13.8445 11.3445C13.8445 10.6494 14.4098 10.084 15.105 10.084C15.8002 10.084 16.3655 10.6494 16.3655 11.3445C16.3655 12.0397 15.8002 12.6051 15.105 12.6051Z" fill="#1C412E"/>
<path d="M6.49123 8.82352C5.10111 8.82352 3.97021 9.95442 3.97021 11.3445C3.97021 12.7347 5.10111 13.8656 6.49123 13.8656C7.88135 13.8656 9.01225 12.7347 9.01225 11.3445C9.01225 9.95442 7.88135 8.82352 6.49123 8.82352ZM6.49123 12.6051C5.79608 12.6051 5.23072 12.0397 5.23072 11.3445C5.23072 10.6494 5.79608 10.084 6.49123 10.084C7.1862 10.084 7.75174 10.6494 7.75174 11.3445C7.75174 12.0397 7.18639 12.6051 6.49123 12.6051Z" fill="#1C412E"/>
<path d="M16.8025 1.60758C16.6954 1.39476 16.4775 1.26051 16.2393 1.26051H12.9199V2.52102H15.8506L17.5668 5.93446L18.6933 5.36805L16.8025 1.60758Z" fill="#1C412E"/>
<path d="M13.2142 10.7353H8.44531V11.9958H13.2142V10.7353Z" fill="#1C412E"/>
<path d="M4.60073 10.7353H2.41588C2.06775 10.7353 1.78564 11.0175 1.78564 11.3656C1.78564 11.7137 2.06779 11.9958 2.41588 11.9958H4.60077C4.94889 11.9958 5.231 11.7136 5.231 11.3656C5.231 11.0174 4.94885 10.7353 4.60073 10.7353Z" fill="#1C412E"/>
<path d="M19.8676 6.88235L18.6279 5.28571C18.5088 5.13192 18.325 5.042 18.1302 5.042H13.5503V0.630235C13.5503 0.28211 13.2682 0 12.9201 0H2.41588C2.06775 0 1.78564 0.282149 1.78564 0.630235C1.78564 0.978321 2.06779 1.26047 2.41588 1.26047H12.2898V5.67223C12.2898 6.02036 12.572 6.30247 12.9201 6.30247H17.8216L18.7394 7.48481V10.7352H16.9957C16.6476 10.7352 16.3655 11.0174 16.3655 11.3655C16.3655 11.7136 16.6476 11.9957 16.9957 11.9957H19.3697C19.7178 11.9957 19.9999 11.7136 19.9999 11.3655V7.26892C19.9999 7.12899 19.9533 6.99286 19.8676 6.88235Z" fill="#1C412E"/>
<path d="M4.5592 7.54204H1.66002C1.31189 7.54204 1.02979 7.82419 1.02979 8.17227C1.02979 8.5204 1.31193 8.80251 1.66002 8.80251H4.55917C4.90729 8.80251 5.1894 8.52036 5.1894 8.17227C5.18944 7.82419 4.90729 7.54204 4.5592 7.54204Z" fill="#1C412E"/>
<path d="M6.00841 5.06301H0.630235C0.282149 5.06301 0 5.34516 0 5.69329C0 6.04141 0.282149 6.32352 0.630235 6.32352H6.00841C6.35653 6.32352 6.63864 6.04137 6.63864 5.69329C6.63864 5.3452 6.35653 5.06301 6.00841 5.06301Z" fill="#1C412E"/>
<path d="M7.03819 2.58402H1.66002C1.31189 2.58402 1.02979 2.86617 1.02979 3.21426C1.02979 3.56238 1.31193 3.84449 1.66002 3.84449H7.03819C7.38632 3.84449 7.66843 3.56234 7.66843 3.21426C7.66847 2.86617 7.38632 2.58402 7.03819 2.58402Z" fill="#1C412E"/>
</svg>
