<svg width="117" height="26" viewBox="0 0 117 26" fill="none" xmlns="http://www.w3.org/2000/svg">
<path d="M38.364 2.404H33.436V11H32.12V1.2H39.68V11H38.364V2.404ZM41.0127 9.908H41.2227C41.3721 9.908 41.5121 9.87067 41.6427 9.796C41.7827 9.72133 41.9041 9.59067 42.0067 9.404C42.1094 9.21733 42.1887 8.96533 42.2447 8.648C42.3101 8.33067 42.3427 7.92933 42.3427 7.444V4H47.3827V11H46.1227V5.148H43.6027V7.444C43.6027 8.13467 43.5467 8.71333 43.4347 9.18C43.3227 9.64667 43.1641 10.0247 42.9587 10.314C42.7534 10.6033 42.5014 10.8087 42.2027 10.93C41.9134 11.0513 41.5867 11.112 41.2227 11.112H41.0127V9.908ZM51.2316 11.112C50.5036 11.112 49.9483 10.93 49.5656 10.566C49.183 10.1927 48.9916 9.684 48.9916 9.04C48.9916 8.68533 49.0476 8.368 49.1596 8.088C49.2716 7.79867 49.449 7.556 49.6916 7.36C49.9436 7.164 50.261 7.01467 50.6436 6.912C51.0356 6.80933 51.5116 6.758 52.0716 6.758H53.4716V6.24C53.4716 5.848 53.355 5.54467 53.1216 5.33C52.8976 5.11533 52.5476 5.008 52.0716 5.008C51.5956 5.008 51.2503 5.09667 51.0356 5.274C50.8303 5.45133 50.709 5.68 50.6716 5.96H49.2716C49.309 5.36267 49.5516 4.868 49.9996 4.476C50.457 4.084 51.1476 3.888 52.0716 3.888C52.949 3.888 53.6116 4.098 54.0596 4.518C54.5076 4.938 54.7316 5.512 54.7316 6.24V11H53.7516L53.5976 9.852C53.3456 10.2533 53.0143 10.566 52.6036 10.79C52.2023 11.0047 51.745 11.112 51.2316 11.112ZM51.3716 9.992C51.6796 9.992 51.9596 9.94067 52.2116 9.838C52.473 9.73533 52.697 9.6 52.8836 9.432C53.0703 9.25467 53.215 9.04933 53.3176 8.816C53.4203 8.58267 53.4716 8.33533 53.4716 8.074V7.822H52.0716C51.4276 7.822 50.9703 7.934 50.6996 8.158C50.4383 8.37267 50.3076 8.65733 50.3076 9.012C50.3076 9.31067 50.401 9.54867 50.5876 9.726C50.7743 9.90333 51.0356 9.992 51.3716 9.992ZM59.4851 11.112C58.5144 11.112 57.7444 10.8227 57.1751 10.244C56.6151 9.66533 56.3351 8.83933 56.3351 7.766V7.234C56.3351 6.702 56.4097 6.23067 56.5591 5.82C56.7084 5.40933 56.9184 5.05933 57.1891 4.77C57.4597 4.48067 57.7911 4.26133 58.1831 4.112C58.5751 3.96267 59.0091 3.888 59.4851 3.888C59.8957 3.888 60.2597 3.944 60.5771 4.056C60.9037 4.168 61.1837 4.322 61.4171 4.518C61.6597 4.70467 61.8557 4.92867 62.0051 5.19C62.1637 5.45133 62.2804 5.73133 62.3551 6.03H61.0111C60.9084 5.78733 60.7311 5.57267 60.4791 5.386C60.2364 5.19 59.8817 5.092 59.4151 5.092C58.8831 5.092 58.4537 5.26933 58.1271 5.624C57.8097 5.97867 57.6511 6.51533 57.6511 7.234V7.766C57.6511 8.47533 57.8144 9.012 58.1411 9.376C58.4677 9.73067 58.8924 9.908 59.4151 9.908C59.8911 9.908 60.2504 9.81 60.4931 9.614C60.7357 9.418 60.9084 9.15667 61.0111 8.83H62.3551C62.2151 9.502 61.9071 10.0527 61.4311 10.482C60.9551 10.902 60.3064 11.112 59.4851 11.112ZM62.78 4H68.52V5.148H66.28V11H65.02V5.148H62.78V4ZM74.6127 5.498L73.8427 6.94L71.4767 11H69.8527V4H71.1127V9.502L71.8827 8.06L74.2487 4H75.8727V11H74.6127V5.498ZM80.1998 7.934H79.2338V11H77.9738V4H79.2338V6.786H80.2138L82.0898 4H83.5738L81.2498 7.332L83.8538 11H82.3138L80.1998 7.934ZM87.6371 11.112C87.1424 11.112 86.6944 11.0373 86.2931 10.888C85.9011 10.7293 85.5651 10.51 85.2851 10.23C85.0051 9.94067 84.7904 9.59067 84.6411 9.18C84.4918 8.76 84.4171 8.28867 84.4171 7.766V7.234C84.4171 6.72067 84.4918 6.25867 84.6411 5.848C84.7998 5.428 85.0191 5.07333 85.2991 4.784C85.5791 4.49467 85.9151 4.27533 86.3071 4.126C86.7084 3.96733 87.1518 3.888 87.6371 3.888C88.1224 3.888 88.5611 3.96733 88.9531 4.126C89.3544 4.27533 89.6951 4.49467 89.9751 4.784C90.2551 5.064 90.4698 5.414 90.6191 5.834C90.7778 6.24467 90.8571 6.71133 90.8571 7.234V7.766C90.8571 8.28867 90.7778 8.75533 90.6191 9.166C90.4698 9.57667 90.2551 9.92667 89.9751 10.216C89.6951 10.5053 89.3544 10.7293 88.9531 10.888C88.5611 11.0373 88.1224 11.112 87.6371 11.112ZM87.6371 9.908C88.2251 9.908 88.6871 9.73067 89.0231 9.376C89.3684 9.012 89.5411 8.47533 89.5411 7.766V7.234C89.5411 6.534 89.3684 6.002 89.0231 5.638C88.6871 5.274 88.2251 5.092 87.6371 5.092C87.0491 5.092 86.5824 5.274 86.2371 5.638C85.9011 5.99267 85.7331 6.52467 85.7331 7.234V7.766C85.7331 8.466 85.9011 8.998 86.2371 9.362C86.5824 9.726 87.0491 9.908 87.6371 9.908ZM92.5344 4H95.1944C96.137 4 96.8137 4.17733 97.2244 4.532C97.6444 4.88667 97.8544 5.358 97.8544 5.946C97.8544 6.23533 97.7844 6.50133 97.6444 6.744C97.5044 6.98667 97.285 7.192 96.9864 7.36C97.3784 7.51867 97.6677 7.74267 97.8544 8.032C98.041 8.312 98.1344 8.62467 98.1344 8.97C98.1344 9.60467 97.9244 10.104 97.5044 10.468C97.0937 10.8227 96.417 11 95.4744 11H92.5344V4ZM93.7944 7.976V9.852H95.4744C95.9784 9.852 96.3284 9.77267 96.5244 9.614C96.7204 9.446 96.8184 9.208 96.8184 8.9C96.8184 8.60133 96.7204 8.37267 96.5244 8.214C96.3284 8.05533 95.9784 7.976 95.4744 7.976H93.7944ZM93.7944 5.148V6.884H95.1944C95.7077 6.884 96.0577 6.80933 96.2444 6.66C96.4404 6.50133 96.5384 6.28667 96.5384 6.016C96.5384 5.74533 96.4404 5.53533 96.2444 5.386C96.0577 5.22733 95.7077 5.148 95.1944 5.148H93.7944ZM99.8078 4H101.068V6.24H102.398C103.452 6.24 104.218 6.45467 104.694 6.884C105.17 7.304 105.408 7.88267 105.408 8.62C105.408 9.36667 105.17 9.95 104.694 10.37C104.218 10.79 103.452 11 102.398 11H99.8078V4ZM106.388 4H107.648V11H106.388V4ZM101.068 7.388V9.852H102.468C103.084 9.852 103.513 9.74933 103.756 9.544C103.998 9.32933 104.12 9.02133 104.12 8.62C104.12 8.21867 103.998 7.91533 103.756 7.71C103.513 7.49533 103.084 7.388 102.468 7.388H101.068ZM112.477 11.112C112.011 11.112 111.581 11.0373 111.189 10.888C110.807 10.7293 110.475 10.5053 110.195 10.216C109.925 9.92667 109.71 9.57667 109.551 9.166C109.402 8.75533 109.327 8.28867 109.327 7.766V7.234C109.327 6.72067 109.402 6.25867 109.551 5.848C109.71 5.43733 109.929 5.08733 110.209 4.798C110.489 4.50867 110.821 4.28467 111.203 4.126C111.586 3.96733 112.011 3.888 112.477 3.888C112.944 3.888 113.369 3.96733 113.751 4.126C114.143 4.27533 114.475 4.49467 114.745 4.784C115.025 5.07333 115.24 5.428 115.389 5.848C115.548 6.25867 115.627 6.72067 115.627 7.234V7.906H110.643C110.662 8.58733 110.839 9.10067 111.175 9.446C111.511 9.79133 111.945 9.964 112.477 9.964C113.028 9.964 113.429 9.866 113.681 9.67C113.933 9.474 114.129 9.194 114.269 8.83H115.557C115.417 9.52067 115.105 10.076 114.619 10.496C114.134 10.9067 113.42 11.112 112.477 11.112ZM112.477 5.036C111.973 5.036 111.558 5.18533 111.231 5.484C110.914 5.77333 110.723 6.21667 110.657 6.814H114.283C114.227 6.198 114.045 5.75 113.737 5.47C113.429 5.18067 113.009 5.036 112.477 5.036ZM34.276 19.934H33.31V23H32.05V16H33.31V18.786H34.29L36.166 16H37.65L35.326 19.332L37.93 23H36.39L34.276 19.934ZM40.8 23.112C40.072 23.112 39.5167 22.93 39.134 22.566C38.7513 22.1927 38.56 21.684 38.56 21.04C38.56 20.6853 38.616 20.368 38.728 20.088C38.84 19.7987 39.0173 19.556 39.26 19.36C39.512 19.164 39.8293 19.0147 40.212 18.912C40.604 18.8093 41.08 18.758 41.64 18.758H43.04V18.24C43.04 17.848 42.9233 17.5447 42.69 17.33C42.466 17.1153 42.116 17.008 41.64 17.008C41.164 17.008 40.8187 17.0967 40.604 17.274C40.3987 17.4513 40.2773 17.68 40.24 17.96H38.84C38.8773 17.3627 39.12 16.868 39.568 16.476C40.0253 16.084 40.716 15.888 41.64 15.888C42.5173 15.888 43.18 16.098 43.628 16.518C44.076 16.938 44.3 17.512 44.3 18.24V23H43.32L43.166 21.852C42.914 22.2533 42.5827 22.566 42.172 22.79C41.7707 23.0047 41.3133 23.112 40.8 23.112ZM40.94 21.992C41.248 21.992 41.528 21.9407 41.78 21.838C42.0413 21.7353 42.2653 21.6 42.452 21.432C42.6387 21.2547 42.7833 21.0493 42.886 20.816C42.9887 20.5827 43.04 20.3353 43.04 20.074V19.822H41.64C40.996 19.822 40.5387 19.934 40.268 20.158C40.0067 20.3727 39.876 20.6573 39.876 21.012C39.876 21.3107 39.9693 21.5487 40.156 21.726C40.3427 21.9033 40.604 21.992 40.94 21.992ZM49.7114 23.112C48.7874 23.112 48.0781 22.8087 47.5834 22.202V25.8H46.3234V16H47.3034L47.4294 17.008C47.6721 16.6347 47.9894 16.3547 48.3814 16.168C48.7734 15.9813 49.2214 15.888 49.7254 15.888C50.1174 15.888 50.4814 15.9627 50.8174 16.112C51.1628 16.252 51.4568 16.4667 51.6994 16.756C51.9421 17.036 52.1334 17.386 52.2734 17.806C52.4134 18.2167 52.4834 18.6927 52.4834 19.234V19.766C52.4834 20.3073 52.4134 20.788 52.2734 21.208C52.1334 21.6187 51.9374 21.9687 51.6854 22.258C51.4428 22.538 51.1488 22.7527 50.8034 22.902C50.4674 23.042 50.1034 23.112 49.7114 23.112ZM49.3754 21.908C49.9354 21.908 50.3741 21.7353 50.6914 21.39C51.0088 21.0447 51.1674 20.5033 51.1674 19.766V19.234C51.1674 18.506 51.0088 17.9693 50.6914 17.624C50.3741 17.2693 49.9354 17.092 49.3754 17.092C48.8714 17.092 48.4514 17.2647 48.1154 17.61C47.7794 17.9553 47.6021 18.464 47.5834 19.136V19.766C47.5834 20.4567 47.7514 20.9887 48.0874 21.362C48.4234 21.726 48.8528 21.908 49.3754 21.908ZM53.114 16H58.854V17.148H56.614V23H55.354V17.148H53.114V16ZM60.1867 16H61.4467V18.24H62.7767C63.8314 18.24 64.5967 18.4547 65.0727 18.884C65.5487 19.304 65.7867 19.8827 65.7867 20.62C65.7867 21.3667 65.5487 21.95 65.0727 22.37C64.5967 22.79 63.8314 23 62.7767 23H60.1867V16ZM66.7667 16H68.0267V23H66.7667V16ZM61.4467 19.388V21.852H62.8467C63.4627 21.852 63.8921 21.7493 64.1347 21.544C64.3774 21.3293 64.4987 21.0213 64.4987 20.62C64.4987 20.2187 64.3774 19.9153 64.1347 19.71C63.8921 19.4953 63.4627 19.388 62.8467 19.388H61.4467Z" fill="#444444"/>
<path d="M21 7.68555V6.57812C21 5.30959 19.9717 4.28125 18.7031 4.28125H2.29688C1.02834 4.28125 0 5.30959 0 6.57812V7.68555C0 7.79879 0.091834 7.89062 0.205078 7.89062H20.7949C20.9082 7.89062 21 7.79879 21 7.68555Z" fill="#1C412E"/>
<path d="M0 9.4082V16.4219C0 17.6904 1.02834 18.7188 2.29688 18.7188H18.7031C19.9717 18.7188 21 17.6904 21 16.4219V9.4082C21 9.29496 20.9082 9.20312 20.7949 9.20312H0.205078C0.091834 9.20312 0 9.29496 0 9.4082ZM5.25 14.7812C5.25 15.1437 4.95616 15.4375 4.59375 15.4375H3.9375C3.57509 15.4375 3.28125 15.1437 3.28125 14.7812V14.125C3.28125 13.7626 3.57509 13.4688 3.9375 13.4688H4.59375C4.95616 13.4688 5.25 13.7626 5.25 14.125V14.7812Z" fill="#1C412E"/>
</svg>
