<svg width="64" height="34" viewBox="0 0 64 34" fill="none" xmlns="http://www.w3.org/2000/svg">
<path d="M63.6686 16.1896C58.3897 10.9048 53.1101 5.62004 47.8312 0.335273C47.5926 0.0964483 47.325 0.00153009 47.065 0.00153009C47.0498 -8.41037e-07 47.0352 0.000765464 47.0199 0C47.0046 0.000765464 46.9901 -8.41037e-07 46.9748 0.00153009C46.7148 0.00153009 46.4472 0.0964483 46.2087 0.335273C46.029 0.515157 45.8478 0.695806 45.6681 0.876455C45.2261 1.31889 45.2261 2.05757 45.6681 2.5C49.9866 6.82335 54.3059 11.1475 58.6245 15.4708C39.4648 15.4708 20.3066 15.4708 1.14692 15.4708C0.521467 15.4708 0 15.9928 0 16.619C0 16.8739 0 17.1296 0 17.3845C0 18.0098 0.521467 18.5326 1.14692 18.5326C20.3058 18.5326 39.464 18.5326 58.6229 18.5326C54.3052 22.856 49.9859 27.1801 45.6681 31.5034C45.2261 31.9459 45.2261 32.6846 45.6681 33.127C45.8478 33.3069 46.029 33.4883 46.2087 33.6682C46.6506 34.1106 47.3885 34.1106 47.8304 33.6682C53.1093 28.3834 58.389 23.0971 63.6679 17.8123C64.1106 17.3714 64.1106 16.632 63.6686 16.1896Z" fill="white"/>
</svg>
