<svg width="64" height="34" viewBox="0 0 64 34" fill="none" xmlns="http://www.w3.org/2000/svg">
<path d="M0.33137 16.1896C5.61026 10.9048 10.8899 5.62004 16.1688 0.335273C16.4074 0.0964483 16.675 0.00153009 16.935 0.00153009C16.9502 -8.41037e-07 16.9648 0.000765464 16.9801 0C16.9954 0.000765464 17.0099 -8.41037e-07 17.0252 0.00153009C17.2852 0.00153009 17.5528 0.0964483 17.7913 0.335273C17.971 0.515157 18.1522 0.695806 18.3319 0.876455C18.7739 1.31889 18.7739 2.05757 18.3319 2.5C14.0134 6.82335 9.69407 11.1475 5.37553 15.4708C24.5352 15.4708 43.6934 15.4708 62.8531 15.4708C63.4785 15.4708 64 15.9928 64 16.619C64 16.8739 64 17.1296 64 17.3845C64 18.0098 63.4785 18.5326 62.8531 18.5326C43.6942 18.5326 24.536 18.5326 5.37706 18.5326C9.69483 22.856 14.0141 27.1801 18.3319 31.5034C18.7739 31.9459 18.7739 32.6846 18.3319 33.127C18.1522 33.3069 17.971 33.4883 17.7913 33.6682C17.3494 34.1106 16.6115 34.1106 16.1696 33.6682C10.8907 28.3834 5.61103 23.0971 0.332134 17.8123C-0.110577 17.3714 -0.110577 16.632 0.33137 16.1896Z" fill="white"/>
</svg>
